<?xml version="1.0" standalone="no"?>
<!DOCTYPE svg PUBLIC "-//W3C//DTD SVG 20010904//EN"
 "http://www.w3.org/TR/2001/REC-SVG-20010904/DTD/svg10.dtd">
<svg version="1.0" xmlns="http://www.w3.org/2000/svg"
 width="239.000000pt" height="239.000000pt" viewBox="0 0 239.000000 239.000000"
 preserveAspectRatio="xMidYMid meet">
<metadata>
Created by potrace 1.11, written by Peter Selinger 2001-2013
</metadata>
<g transform="translate(0.000000,239.000000) scale(0.100000,-0.100000)"
fill="#000000" stroke="none">
<path d="M950 2374 c-97 -21 -216 -63 -289 -101 -69 -36 -158 -90 -178 -108
-6 -5 -31 -26 -55 -45 -62 -51 -178 -172 -178 -187 0 -7 -4 -13 -10 -13 -5 0
-22 -21 -37 -47 -15 -27 -30 -50 -34 -53 -15 -11 -84 -160 -110 -239 -16 -46
-36 -120 -44 -164 -24 -127 -18 -409 11 -497 3 -8 6 -17 6 -20 0 -3 5 -16 10
-30 5 -14 12 -36 15 -50 11 -61 84 -204 165 -324 49 -72 243 -266 266 -266 5
0 17 -8 28 -18 72 -66 281 -158 419 -184 36 -7 65 -16 65 -20 0 -5 88 -8 195
-8 123 0 195 4 195 10 0 6 14 10 31 10 43 0 221 61 311 106 125 63 217 131
325 243 140 143 248 335 300 531 26 98 28 119 28 300 0 183 -2 202 -28 300
-26 97 -119 311 -139 318 -4 2 -8 9 -8 16 0 7 -8 21 -18 32 -11 11 -21 25 -23
31 -16 46 -256 283 -286 283 -7 0 -13 5 -13 10 0 6 -5 10 -12 10 -6 0 -19 6
-27 14 -22 19 -171 97 -171 90 0 -4 -6 -2 -12 3 -21 16 -137 52 -222 68 -101
19 -385 19 -476 -1z"/>
</g>
</svg>
